# xmcd
#
# Track frame offsets:
# 150
# 7701
# 27495
# 42791
# 62893
# 75372
# 91338
# 110390
# 126785
# 146095
# 155167
# 172826
# 191358
# 209115
# 229471
# 254067
#
# Disc length: 3620 seconds
#
#
# Revision: 0
# Processed by: cddbd v1.5.2PL0 Copyright (c) Steve Scherf et al.
# Submitted via: FreeRIP 2.945 
#
DISCID=da0e2210
DTITLE=New Edition - One Love
DYEAR=2006
DGENRE=
TTITLE0=Conference Call
TTITLE1=Been So Long
TTITLE2=Hot 2 Nite
TTITLE3=Sexy Lady
TTITLE4=Last Time
TTITLE5=All On You
TTITLE6=Wildest Dream
TTITLE7=Start Turnin Me On
TTITLE8=Love Again
TTITLE9=One Love Interlude
TTITLE10=Thats Why I Lied
TTITLE11=Come Home With Me
TTITLE12=Best Man
TTITLE13=Re-Write The Memories
TTITLE14=Newness
TTITLE15=Feelin It
EXTD=
EXTT0=
EXTT1=
EXTT2=
EXTT3=
EXTT4=
EXTT5=
EXTT6=
EXTT7=
EXTT8=
EXTT9=
EXTT10=
EXTT11=
EXTT12=
EXTT13=
EXTT14=
EXTT15=
PLAYORDER=
